<svg width="34" height="30" viewBox="0 0 34 30" fill="none" xmlns="http://www.w3.org/2000/svg">
<path fill-rule="evenodd" clip-rule="evenodd" d="M14.3601 0.809452C14.9682 0.288034 15.7537 0 16.5674 0C17.3811 0 18.1666 0.288034 18.7747 0.809452L25.3085 6.41001L25.7237 4.0013C25.7594 3.79383 25.8372 3.59518 25.9526 3.41669C26.068 3.23821 26.2187 3.08339 26.3961 2.96107C26.5736 2.83875 26.7743 2.75133 26.9867 2.7038C27.1992 2.65626 27.4193 2.64955 27.6345 2.68405C27.8496 2.71854 28.0556 2.79356 28.2407 2.90482C28.4258 3.01608 28.5864 3.16141 28.7132 3.33251C28.8401 3.50361 28.9307 3.69713 28.98 3.90201C29.0293 4.10689 29.0363 4.31913 29.0005 4.52661L28.2432 8.92441L32.6195 12.6768C32.932 12.963 33.1168 13.3552 33.135 13.7704C33.1532 14.1856 33.0033 14.5913 32.717 14.9019C32.4306 15.2125 32.0303 15.4037 31.6006 15.4349C31.1708 15.4662 30.7453 15.3352 30.4139 15.0695L29.6433 14.4097L28.3362 27.0041C28.2542 27.7948 27.8704 28.5278 27.2593 29.0608C26.6482 29.5939 25.8534 29.8888 25.0294 29.8885H8.10538C7.28166 29.8884 6.48733 29.5933 5.87658 29.0603C5.26584 28.5273 4.88226 27.7945 4.8003 27.0041L3.49487 14.4097L2.72258 15.0695C2.39117 15.3352 1.96565 15.4662 1.5359 15.4349C1.10615 15.4037 0.705836 15.2125 0.419516 14.9019C0.133197 14.5913 -0.0167041 14.1856 0.00148056 13.7704C0.0196652 13.3552 0.204511 12.963 0.51697 12.6768L14.3601 0.809452Z" fill="white"/>
<ellipse cx="16.5683" cy="21.3633" rx="5.37054" ry="5.17873" fill="black"/>
</svg>
